# xmcd CD database file
#
# Track frame offsets:
#	150
#	1700
#	24355
#	43855
#	64505
#	84397
#	100795
#	122417
#	142397
#	161440
#	180310
#	199832
#	228345
#
# Disc length: 3412 seconds
#
# Revision: 7
# Processed by: cddbd v1.5.2PL0 Copyright (c) Steve Scherf et al.
# Submitted via: CDex 1.70beta2
#
DISCID=990d520d
DTITLE=이수영 - made in winter
DYEAR=2002
DGENRE=Blues
TTITLE0=Made in winter
TTITLE1=Farewell 블루스
TTITLE2=그리고 사랑해
TTITLE3=혼자맞는 겨울
TTITLE4=차라리
TTITLE5=아니기를
TTITLE6=상처
TTITLE7=사랑은 끝났어
TTITLE8=길
TTITLE9=돌아오면
TTITLE10=그리고 사랑해 (acoustic piano instrumental version)
TTITLE11=Farewell 블루스 (nylon guitar instrumental version)
TTITLE12=Data( not audio track)
EXTD=YEAR: 2002
EXTT0=
EXTT1=
EXTT2=
EXTT3=
EXTT4=
EXTT5=
EXTT6=
EXTT7=
EXTT8=
EXTT9=
EXTT10=
EXTT11=
EXTT12=
PLAYORDER=
